HIERARCHY
ROOT pelvis
{
  OFFSET 0 100 0
  CHANNELS 6 Xposition Yposition Zposition Zrotation Xrotation Yrotation
  JOINT pelvis_right_femur
  {
    OFFSET -10.78128 -3.44521 -0.5502486
    CHANNELS 3 Zrotation Xrotation Yrotation
    JOINT right_femur_tibia
    {
      OFFSET -0.8047443 -44.0398 -0.1307829
      CHANNELS 3 Zrotation Xrotation Yrotation
      JOINT right_tibia_foot
      {
        OFFSET 3.006224 -47.83518 -5
        CHANNELS 3 Zrotation Xrotation Yrotation
        End Site
        {
          OFFSET 0 -5 15
        }
      }
    }
  }
  JOINT pelvis_left_femur
  {
    OFFSET 10.78128 -3.44521 -0.5502486
    CHANNELS 3 Zrotation Xrotation Yrotation
    JOINT left_femur_tibia
    {
      OFFSET 0.8047443 -44.0398 -0.1307829
      CHANNELS 3 Zrotation Xrotation Yrotation
      JOINT left_tibia_foot
      {
        OFFSET -4.370144 -48.10324 -4.275266
        CHANNELS 3 Zrotation Xrotation Yrotation
        End Site
        {
          OFFSET 0 -5 15
        }
      }
    }
  }
  JOINT pelvis_spine1
  {
    OFFSET 0 6.468898 -3.129235
    CHANNELS 3 Zrotation Xrotation Yrotation
    JOINT spine1
    {
      OFFSET 0 23.15396 4.99043
      CHANNELS 3 Zrotation Xrotation Yrotation
      JOINT spine2
      {
        OFFSET 0 20.79997 -5.064912
        CHANNELS 3 Zrotation Xrotation Yrotation
        JOINT neck
        {
          OFFSET 0 14.38658 9.616178
          CHANNELS 3 Zrotation Xrotation Yrotation
          End Site
          {
            OFFSET 0 20 0
          }
        }
      }
      JOINT right_manubrium
      {
        OFFSET -5.722621 16.35077 3.967754
        CHANNELS 3 Zrotation Xrotation Yrotation
        JOINT right_clavicle
        {
          OFFSET -13.16364 1.694482 -4.693211
          CHANNELS 3 Zrotation Xrotation Yrotation
          JOINT right_humerus
          {
            OFFSET -28.5034 -0.3100689 -2.792744
            CHANNELS 3 Zrotation Xrotation Yrotation
            JOINT right_radius
            {
              OFFSET -25.15693 0.02248979 -1.271978
              CHANNELS 3 Zrotation Xrotation Yrotation
              End Site
              {
                OFFSET -15 0 0
              }
            }
          }
        }
      }
      JOINT left_manubrium
      {
        OFFSET 5.722621 16.35077 3.967754
        CHANNELS 3 Zrotation Xrotation Yrotation
        JOINT left_clavicle
        {
          OFFSET 13.16364 1.694482 -4.693211
          CHANNELS 3 Zrotation Xrotation Yrotation
          JOINT left_humerus
          {
            OFFSET 29.39168 -1.063119 -2.237045
            CHANNELS 3 Zrotation Xrotation Yrotation
            JOINT left_radius
            {
              OFFSET 24.59957 -0.9528479 0.9047498
              CHANNELS 3 Zrotation Xrotation Yrotation
              End Site
              {
                OFFSET 15 -0 -0
              }
            }
          }
        }
      }
    }
  }
}
MOTION
Frames: 13
Frame Time: 0.0416666666667
1350.298 101.3806 2728.384 6.095803 -3.120895 50.44937 -0.5085779 -23.14238 0.8183173 -0 25.93074 -0 -0.5075196 -5.045553 -9.142594 -5.274332 14.27214 -8.395058 -0 13.0392 -0 -4.299605 -19.64746 12.9356 -3.180137 1.054971 2.090853 0.8936921 8.931882 -7.892408 2.012125 22.88478 6.021066 1.658931 -15.41859 8.219316 1.858396 -13.85349 9.692522 90.06078 27.07897 -20.21117 -0 0 9.81341 -22.02283 13.70318 11.08084 5.919925 -21.2218 -4.978855 -80.24008 23.51529 3.124639 0 0 -25.53923 1.5009 8.040088 11.18399
1354.753 99.93223 2732.212 5.622899 -2.388989 51.08065 -0.7823785 -25.70806 0.1068307 -0 18.23221 -0 -1.25009 -5.058333 -9.12943 -5.258444 16.73658 -8.611742 -0 13.12896 -0 -4.561561 -20.74899 12.60241 -3.383298 0.7475486 1.917305 1.140885 8.595516 -8.177694 2.104488 22.79895 5.986261 2.016998 -15.604 8.009633 1.869323 -13.1891 9.573911 90.53088 27.60747 -21.81121 -0 0 8.350848 -21.43329 13.66113 10.38259 6.529613 -22.06187 -5.003094 -79.40862 23.64502 1.27899 0 0 -27.93459 1.751926 8.661094 10.6081
1359.369 98.45319 2736.26 4.941057 -1.856841 51.60363 -0.3816383 -27.1258 0.0001544379 -0 13.52271 -0 -1.739355 -4.206727 -9.080651 -5.085718 18.21916 -8.748796 -0 14.86728 -0 -4.935784 -20.99443 12.41438 -3.293841 0.3819994 1.861223 1.356961 8.412294 -8.33275 2.185215 22.58535 5.905271 2.283925 -16.19247 7.817582 2.020205 -12.86261 9.587226 90.81121 27.90213 -22.91804 -0 0 7.338756 -20.68652 13.58444 9.713429 6.811567 -22.48635 -4.910665 -79.33671 23.94443 0.9644012 0 0 -29.10082 1.821729 9.182435 10.59667
1364.188 97.21261 2740.557 4.252859 -1.735585 52.02509 0.7435772 -27.43946 0.5891114 -0 11.8141 -0 -1.906069 -3.078633 -9.123314 -4.746753 18.95222 -8.672843 -0 18.5799 -0 -5.454777 -20.12346 12.29922 -2.857562 0.07136101 1.821202 1.560085 8.413919 -8.398413 2.24575 22.31506 5.766395 2.339754 -16.91452 7.707595 2.217991 -12.73687 9.720443 91.01672 27.84049 -23.49661 -0 0 6.665501 -19.88226 13.6111 9.157518 6.769651 -22.52102 -4.729093 -79.76819 24.04012 1.588534 0 0 -29.08557 1.997349 9.444025 10.68192
1369.23 96.41731 2745.125 3.851445 -2.088527 52.30402 2.309739 -26.42776 1.689667 -0 12.354 -0 -1.777678 -2.255406 -9.30925 -4.318431 19.06647 -8.307413 -0 24.43046 -0 -6.091023 -18.11525 12.29059 -2.185397 -0.1513 1.792579 1.745891 8.606022 -8.385075 2.287626 22.10793 5.55804 2.182239 -17.44383 7.651562 2.396872 -12.66973 9.942602 91.1941 27.38235 -23.62231 -0 0 6.148384 -19.18404 13.77434 8.733838 6.458844 -22.27698 -4.531126 -80.4277 23.74484 2.524709 0 0 -28.15528 2.364838 9.397547 10.55059
1374.463 96.2147 2749.927 3.919536 -2.826565 52.36114 3.900782 -23.8473 2.975975 -0 14.20172 -0 -1.452612 -2.103555 -9.52873 -3.881512 18.38389 -7.750124 -0 32.26162 -0 -6.822749 -15.187 12.48974 -1.442838 -0.2909686 1.876798 1.882053 8.972296 -8.257258 2.311408 22.06124 5.320666 1.933824 -17.58715 7.591379 2.590055 -12.63019 10.23169 91.25106 26.69565 -23.38018 -0 0 5.774373 -18.75159 14.06043 8.428958 5.948322 -21.86403 -4.396558 -81.25094 23.22943 3.586248 0 0 -26.56086 2.710164 9.161295 10.30517
1379.773 96.67234 2754.837 4.412327 -3.73149 52.11701 5.135253 -19.74278 4.11771 -0 16.40079 -0 -1.089579 -2.724794 -9.51526 -3.476799 16.41376 -7.216583 -0 41.37952 -0 -7.641651 -11.77816 12.94678 -0.7817366 -0.3287015 2.238941 1.923427 9.474301 -7.960079 2.306027 22.19058 5.155933 1.792726 -17.36989 7.481228 2.903967 -12.71548 10.58478 90.97951 26.15703 -22.81129 -0 0 5.753603 -18.70467 14.42945 8.269225 5.321547 -21.37162 -4.368812 -82.35989 22.86138 5.023252 0 0 -24.54669 2.68243 8.906228 10.3439
1384.984 97.71634 2759.661 5.079779 -4.501493 51.53675 5.765969 -14.62645 4.879924 -0 17.98065 -0 -0.8746633 -4.001393 -8.988219 -3.118536 12.62251 -6.881572 -0 50.35855 -0 -8.46409 -8.548936 13.59416 -0.3355744 -0.2039295 3.013923 1.832983 10.02716 -7.460026 2.262048 22.42679 5.162345 1.921511 -17.00836 7.306669 3.399076 -13.07262 10.9933 90.16793 26.18613 -21.89111 -0 0 6.366495 -19.08004 14.78766 8.342529 4.688716 -20.87228 -4.415388 -83.84287 22.92296 7.148742 0 0 -22.48221 2.075736 8.719024 11.01888
1389.941 99.08917 2764.221 5.659914 -4.897879 50.66806 5.755717 -9.318926 5.212702 -0 18.27874 -0 -0.9361691 -5.739887 -7.929618 -2.815637 6.991191 -6.763205 -0 57.20745 -0 -9.05231 -6.260792 14.34209 -0.214148 0.1432084 4.156004 1.597301 10.463 -6.760647 2.222837 22.69561 5.302327 2.28526 -16.73699 7.11327 3.935124 -13.74598 11.38839 88.76937 26.88204 -20.47245 -0 0 7.717433 -19.71462 14.96027 8.681811 4.179283 -20.36028 -4.410973 -85.56832 23.40796 9.860696 0 0 -20.7232 1.08274 8.600284 12.22125
1394.591 100.4178 2768.456 6.14288 -4.968107 49.64365 5.298068 -4.34526 5.269367 -0 17.49456 -0 -1.248268 -7.833864 -6.740934 -2.539138 0.3732849 -6.738106 -0 60.22589 -0 -9.135528 -5.404146 15.29477 -0.444424 0.7027482 5.359451 1.224982 10.56651 -5.878351 2.302947 23.0299 5.343487 2.617162 -16.52977 6.985225 4.176329 -14.57234 11.62289 86.95813 27.71457 -18.27133 -0 0 9.636752 -20.23839 14.73951 9.113469 3.904281 -19.67792 -4.219032 -87.25102 24.05397 12.505 0 0 -19.0815 0.2378188 8.620274 13.25615
1398.987 101.3587 2772.429 6.738583 -5.044869 48.62145 4.71068 0.4756344 5.275365 -0 16.5591 -0 -1.58644 -10.26466 -5.943377 -2.159539 -6.095944 -6.614806 -0 58.76164 -0 -8.697248 -5.850226 16.72676 -0.8860082 1.377633 6.256493 0.7283228 10.23057 -4.827167 2.588713 23.51949 5.048705 2.64812 -16.0814 6.951269 3.835706 -15.35425 11.57261 85.00972 27.7373 -15.09214 -0 0 11.95779 -20.42638 13.99334 9.403892 3.910683 -18.62042 -3.838891 -88.7608 24.58363 14.47693 0 0 -16.77781 -0.1209423 8.864532 13.50007
1403.261 101.6717 2776.268 7.516431 -5.451242 47.71115 4.287081 5.591068 5.372755 -0 16.267 -0 -1.594394 -13.03185 -5.757687 -1.429703 -11.87394 -6.154656 -0 52.79176 -0 -8.068676 -6.994131 18.69617 -1.21311 2.030504 6.689805 0.1220603 9.551275 -3.659388 3.042385 24.1114 4.387753 2.279997 -15.18583 6.97394 2.797621 -16.17775 11.24281 83.2941 26.08569 -11.1335 -0 0 14.84448 -20.49661 12.67737 9.609333 4.151449 -17.12225 -3.402617 -90.25163 24.88444 15.90722 0 0 -13.33563 -0.301352 9.10019 13.25833
1407.615 101.21 2780.133 8.225905 -6.341374 46.94123 4.281508 11.06542 5.590449 -0 16.93402 -0 -0.9437895 -16.25403 -6.11174 -0.04072856 -16.84057 -5.112847 -0 42.36122 -0 -7.790846 -8.145992 20.78925 -0.9757821 2.519557 6.680784 -0.5384706 8.721128 -2.516215 3.534048 24.58139 3.486773 1.47516 -13.97876 7.040189 0.9731695 -17.40607 10.70453 82.39732 22.13991 -7.000307 -0 0 18.66413 -20.82458 10.72632 10.0536 4.483118 -15.24285 -3.025837 -91.96139 25.01153 17.53016 0 0 -9.087238 -1.0743 8.755555 13.69302
